<?xml version="1.0" encoding="UTF-8"?>
<!--Generator: Apple Native CoreSVG 341-->
<!DOCTYPE svg
PUBLIC "-//W3C//DTD SVG 1.1//EN"
       "http://www.w3.org/Graphics/SVG/1.1/DTD/svg11.dtd">
<svg version="1.1" xmlns="http://www.w3.org/2000/svg" xmlns:xlink="http://www.w3.org/1999/xlink" viewBox="0 0 27.3438 26.6264">
 <g>
  <rect height="26.6264" opacity="0" width="27.3438" x="0" y="0"/>
  <path d="M13.4888 24.977C13.7939 24.977 14.0869 24.9648 14.3799 24.9404L15.0513 26.1977C15.21 26.5151 15.4907 26.6372 15.8325 26.6005C16.1865 26.5395 16.394 26.3076 16.4307 25.9658L16.6382 24.5498C17.2241 24.3911 17.7734 24.1835 18.3105 23.9394L19.3604 24.8916C19.6167 25.1357 19.9341 25.1479 20.2393 24.9892C20.5444 24.8183 20.6665 24.5253 20.5933 24.1835L20.2881 22.7919C20.7764 22.4501 21.228 22.0595 21.6553 21.6567L22.9614 22.1938C23.291 22.3159 23.5962 22.2426 23.8281 21.9741C24.0601 21.7055 24.0845 21.4003 23.8892 21.0952L23.1323 19.8989C23.4619 19.3984 23.7549 18.8857 24.0234 18.3608L25.4272 18.4096C25.7812 18.4218 26.0498 18.2509 26.1719 17.9091C26.2939 17.5917 26.2085 17.2866 25.9277 17.0791L24.7925 16.2124C24.9512 15.6386 25.0488 15.0527 25.1099 14.4423L26.4526 14.0151C26.7944 13.9052 26.9897 13.6611 26.9897 13.3071C26.9897 12.9531 26.7944 12.6967 26.4526 12.5991L25.1099 12.1718C25.0488 11.5615 24.9512 10.9755 24.7925 10.4018L25.9155 9.53511C26.2085 9.32759 26.2817 9.02241 26.1719 8.69282C26.0498 8.35103 25.7812 8.19233 25.4272 8.20454L24.0234 8.24116C23.7549 7.71626 23.4619 7.19136 23.1323 6.70308L23.877 5.51899C24.0723 5.21382 24.0479 4.89644 23.8403 4.62788C23.5962 4.35933 23.291 4.29829 22.9736 4.42036L21.6553 4.95747C21.228 4.53022 20.7642 4.15181 20.2881 3.81001L20.5933 2.43062C20.6665 2.07661 20.5444 1.79585 20.2515 1.62495C19.9341 1.44185 19.6167 1.49067 19.3604 1.72261L18.2983 2.66255C17.7734 2.41841 17.2119 2.2231 16.626 2.0522L16.4307 0.648389C16.394 0.306592 16.1743 0.0868653 15.8447 0.0136231C15.4907-0.0474121 15.21 0.0990723 15.0513 0.404248L14.3799 1.66157C14.0869 1.64937 13.7939 1.63716 13.4888 1.63716C13.1958 1.63716 12.9028 1.64937 12.5977 1.66157L11.9385 0.416455C11.7676 0.0990723 11.4868-0.035205 11.1572 0.0136231C10.8032 0.0746583 10.5957 0.306592 10.5469 0.648389L10.3394 2.0522C9.76562 2.2231 9.2041 2.43062 8.66699 2.67476L7.62939 1.72261C7.37305 1.47847 7.05566 1.45405 6.73828 1.62495C6.43311 1.79585 6.32324 2.08882 6.39648 2.43062L6.68945 3.82222C6.20117 4.16401 5.74951 4.54243 5.32227 4.95747L4.01611 4.42036C3.69873 4.28608 3.38135 4.37153 3.14941 4.64009C2.91748 4.89644 2.90527 5.21382 3.10059 5.51899L3.85742 6.71528C3.51562 7.20356 3.22266 7.72847 2.96631 8.25337L1.5625 8.20454C1.19629 8.18013 0.939941 8.36323 0.817871 8.69282C0.683594 9.02241 0.78125 9.32759 1.06201 9.53511L2.18506 10.4018C2.03857 10.9755 1.92871 11.5615 1.87988 12.1718L0.524902 12.5991C0.183105 12.6967 0 12.9531 0 13.3071C0 13.6611 0.183105 13.9052 0.524902 14.0151L1.87988 14.4423C1.92871 15.0527 2.03857 15.6386 2.18506 16.2124L1.06201 17.0791C0.78125 17.2866 0.708008 17.5917 0.805664 17.9213C0.939941 18.2631 1.19629 18.4218 1.55029 18.4096L2.96631 18.3608C3.22266 18.8979 3.51562 19.4106 3.85742 19.9111L3.10059 21.0952C2.90527 21.4003 2.94189 21.7177 3.14941 21.9741C3.39355 22.2548 3.69873 22.3159 4.01611 22.1938L5.32227 21.6445C5.74951 22.0717 6.21338 22.4501 6.68945 22.8042L6.39648 24.1835C6.32324 24.5253 6.44531 24.8183 6.73828 24.9892C7.05566 25.1723 7.37305 25.1357 7.61719 24.8916L8.6792 23.9394C9.21631 24.1958 9.77783 24.3911 10.3516 24.5498L10.5469 25.9536C10.5957 26.3076 10.8154 26.5273 11.145 26.6005C11.499 26.6616 11.7676 26.5151 11.9385 26.1977L12.5977 24.9404C12.9028 24.9648 13.1958 24.977 13.4888 24.977ZM13.4888 22.9506C8.1665 22.9506 3.84521 18.6293 3.84521 13.3071C3.84521 7.97261 8.1665 3.66353 13.4888 3.66353C18.8232 3.66353 23.1323 7.97261 23.1323 13.3071C23.1323 18.6293 18.8232 22.9506 13.4888 22.9506ZM11.3647 11.4394L12.8052 10.5239L8.72803 3.52925L7.22656 4.37153ZM16.2109 14.1372L24.3286 14.1372L24.3286 12.4526L16.2109 12.4526ZM12.8296 16.1269L11.4014 15.1992L7.10449 22.206L8.59375 23.0849ZM13.501 16.5053C15.271 16.5053 16.6992 15.0771 16.6992 13.3071C16.6992 11.5371 15.271 10.1088 13.501 10.1088C11.731 10.1088 10.3027 11.5371 10.3027 13.3071C10.3027 15.0771 11.731 16.5053 13.501 16.5053ZM13.501 14.6743C12.7441 14.6743 12.1338 14.0639 12.1338 13.3071C12.1338 12.5502 12.7441 11.9399 13.501 11.9399C14.2578 11.9399 14.8682 12.5502 14.8682 13.3071C14.8682 14.0639 14.2578 14.6743 13.501 14.6743Z" fill="white" fill-opacity="0.85"/>
 </g>
</svg>
