<?xml version="1.0" encoding="UTF-8"?>
<!--Generator: Apple Native CoreSVG 341-->
<!DOCTYPE svg
PUBLIC "-//W3C//DTD SVG 1.1//EN"
       "http://www.w3.org/Graphics/SVG/1.1/DTD/svg11.dtd">
<svg version="1.1" xmlns="http://www.w3.org/2000/svg" xmlns:xlink="http://www.w3.org/1999/xlink" viewBox="0 0 81.0059 79.8791">
 <g>
  <rect height="79.8791" opacity="0" width="81.0059" x="0" y="0"/>
  <path d="M40.4663 74.931C41.3818 74.931 42.2607 74.8944 43.1396 74.8211L45.1538 78.5931C45.6299 79.5453 46.4722 79.9115 47.4976 79.8016C48.5596 79.6185 49.1821 78.9227 49.292 77.8973L49.9146 73.6493C51.6724 73.1732 53.3203 72.5506 54.9316 71.8182L58.0811 74.6747C58.8501 75.4071 59.8022 75.4437 60.7178 74.9676C61.6333 74.4549 61.9995 73.576 61.7798 72.5506L60.8643 68.3758C62.3291 67.3504 63.6841 66.1786 64.9658 64.9701L68.8843 66.5814C69.873 66.9476 70.7886 66.7279 71.4844 65.9222C72.1802 65.1166 72.2534 64.201 71.6675 63.2855L69.397 59.6966C70.3857 58.1952 71.2646 56.6571 72.0703 55.0824L76.2817 55.2289C77.3438 55.2655 78.1494 54.7528 78.5156 53.7274C78.8818 52.7752 78.6255 51.8597 77.7832 51.2372L74.3774 48.6371C74.8535 46.9159 75.1465 45.1581 75.3296 43.327L79.3579 42.0453C80.3833 41.7157 80.9692 40.9833 80.9692 39.9212C80.9692 38.8592 80.3833 38.0902 79.3579 37.7972L75.3296 36.5155C75.1465 34.6844 74.8535 32.9266 74.3774 31.2054L77.7466 28.6053C78.6255 27.9828 78.8452 27.0672 78.5156 26.0785C78.1494 25.0531 77.3438 24.577 76.2817 24.6136L72.0703 24.7235C71.2646 23.1488 70.3857 21.5741 69.397 20.1092L71.6309 16.557C72.2168 15.6415 72.1436 14.6893 71.521 13.8836C70.7886 13.078 69.873 12.8949 68.9209 13.2611L64.9658 14.8724C63.6841 13.5907 62.2925 12.4554 60.8643 11.43L61.7798 7.29185C61.9995 6.22983 61.6333 5.38755 60.7544 4.87485C59.8022 4.32554 58.8501 4.47202 58.0811 5.16782L54.895 7.98765C53.3203 7.25522 51.6357 6.66929 49.8779 6.15659L49.292 1.94517C49.1821 0.919776 48.5229 0.260596 47.5342 0.0408693C46.4722-0.142236 45.6299 0.297217 45.1538 1.21274L43.1396 4.98472C42.2607 4.9481 41.3818 4.91147 40.4663 4.91147C39.5874 4.91147 38.7085 4.9481 37.793 4.98472L35.8154 1.24937C35.3027 0.297217 34.4604-0.105615 33.4717 0.0408693C32.4097 0.223975 31.7871 0.919776 31.6406 1.94517L31.0181 6.15659C29.2969 6.66929 27.6123 7.29185 26.001 8.02427L22.8882 5.16782C22.1191 4.4354 21.167 4.36216 20.2148 4.87485C19.2993 5.38755 18.9697 6.26646 19.1895 7.29185L20.0684 11.4667C18.6035 12.492 17.2485 13.6273 15.9668 14.8724L12.0483 13.2611C11.0962 12.8583 10.144 13.1146 9.44824 13.9203C8.75244 14.6893 8.71582 15.6415 9.30176 16.557L11.5723 20.1458C10.5469 21.6107 9.66797 23.1854 8.89893 24.7601L4.6875 24.6136C3.58887 24.5404 2.81982 25.0897 2.45361 26.0785C2.05078 27.0672 2.34375 27.9828 3.18604 28.6053L6.55518 31.2054C6.11572 32.9266 5.78613 34.6844 5.63965 36.5155L1.57471 37.7972C0.549316 38.0902 0 38.8592 0 39.9212C0 40.9833 0.549316 41.7157 1.57471 42.0453L5.63965 43.327C5.78613 45.1581 6.11572 46.9159 6.55518 48.6371L3.18604 51.2372C2.34375 51.8597 2.12402 52.7752 2.41699 53.764C2.81982 54.7894 3.58887 55.2655 4.65088 55.2289L8.89893 55.0824C9.66797 56.6937 10.5469 58.2318 11.5723 59.7333L9.30176 63.2855C8.71582 64.201 8.82568 65.1532 9.44824 65.9222C10.1807 66.7645 11.0962 66.9476 12.0483 66.5814L15.9668 64.9334C17.2485 66.2152 18.6401 67.3504 20.0684 68.4125L19.1895 72.5506C18.9697 73.576 19.3359 74.4549 20.2148 74.9676C21.167 75.5169 22.1191 75.4071 22.8516 74.6747L26.0376 71.8182C27.6489 72.5873 29.3335 73.1732 31.0547 73.6493L31.6406 77.8607C31.7871 78.9227 32.4463 79.5819 33.4351 79.8016C34.4971 79.9847 35.3027 79.5453 35.8154 78.5931L37.793 74.8211C38.7085 74.8944 39.5874 74.931 40.4663 74.931ZM40.4663 68.8519C24.4995 68.8519 11.5356 55.888 11.5356 39.9212C11.5356 23.9178 24.4995 10.9906 40.4663 10.9906C56.4697 10.9906 69.397 23.9178 69.397 39.9212C69.397 55.888 56.4697 68.8519 40.4663 68.8519ZM34.0942 34.3182L38.4155 31.5716L26.1841 10.5877L21.6797 13.1146ZM48.6328 42.4115L72.9858 42.4115L72.9858 37.3578L48.6328 37.3578ZM38.4888 48.3807L34.2041 45.5975L21.3135 66.618L25.7812 69.2547ZM40.5029 49.516C45.813 49.516 50.0977 45.2313 50.0977 39.9212C50.0977 34.6112 45.813 30.3265 40.5029 30.3265C35.1929 30.3265 30.9082 34.6112 30.9082 39.9212C30.9082 45.2313 35.1929 49.516 40.5029 49.516ZM40.5029 44.0228C38.2324 44.0228 36.4014 42.1917 36.4014 39.9212C36.4014 37.6507 38.2324 35.8197 40.5029 35.8197C42.7734 35.8197 44.6045 37.6507 44.6045 39.9212C44.6045 42.1917 42.7734 44.0228 40.5029 44.0228Z" fill="white" fill-opacity="0.85"/>
 </g>
</svg>
