<?xml version="1.0" encoding="UTF-8"?>
<!--Generator: Apple Native CoreSVG 341-->
<!DOCTYPE svg
PUBLIC "-//W3C//DTD SVG 1.1//EN"
       "http://www.w3.org/Graphics/SVG/1.1/DTD/svg11.dtd">
<svg version="1.1" xmlns="http://www.w3.org/2000/svg" xmlns:xlink="http://www.w3.org/1999/xlink" viewBox="0 0 54.3213 53.2527">
 <g>
  <rect height="53.2527" opacity="0" width="54.3213" x="0" y="0"/>
  <path d="M26.9775 49.954C27.5879 49.954 28.1738 49.9296 28.7598 49.8808L30.1025 52.3954C30.4199 53.0302 30.9814 53.2743 31.665 53.2011C32.373 53.079 32.7881 52.6151 32.8613 51.9315L33.2764 49.0995C34.4482 48.7821 35.5469 48.3671 36.6211 47.8788L38.7207 49.7831C39.2334 50.2714 39.8682 50.2958 40.4785 49.9784C41.0889 49.6366 41.333 49.0507 41.1865 48.3671L40.5762 45.5839C41.5527 44.9003 42.4561 44.119 43.3105 43.3134L45.9229 44.3876C46.582 44.6317 47.1924 44.4853 47.6562 43.9481C48.1201 43.411 48.1689 42.8007 47.7783 42.1903L46.2646 39.7978C46.9238 38.7968 47.5098 37.7714 48.0469 36.7216L50.8545 36.8192C51.5625 36.8437 52.0996 36.5019 52.3438 35.8183C52.5879 35.1835 52.417 34.5731 51.8555 34.1581L49.585 32.4247C49.9023 31.2772 50.0977 30.1054 50.2197 28.8847L52.9053 28.0302C53.5889 27.8104 53.9795 27.3222 53.9795 26.6142C53.9795 25.9062 53.5889 25.3935 52.9053 25.1981L50.2197 24.3437C50.0977 23.1229 49.9023 21.9511 49.585 20.8036L51.8311 19.0702C52.417 18.6552 52.5635 18.0448 52.3438 17.3856C52.0996 16.7021 51.5625 16.3847 50.8545 16.4091L48.0469 16.4823C47.5098 15.4325 46.9238 14.3827 46.2646 13.4062L47.7539 11.038C48.1445 10.4276 48.0957 9.79287 47.6807 9.25576C47.1924 8.71865 46.582 8.59658 45.9473 8.84072L43.3105 9.91494C42.4561 9.06045 41.5283 8.30361 40.5762 7.62002L41.1865 4.86123C41.333 4.15322 41.0889 3.5917 40.5029 3.2499C39.8682 2.88369 39.2334 2.98135 38.7207 3.44521L36.5967 5.3251C35.5469 4.83682 34.4238 4.44619 33.252 4.10439L32.8613 1.29678C32.7881 0.613184 32.3486 0.173731 31.6895 0.0272462C30.9814-0.0948241 30.4199 0.198145 30.1025 0.808496L28.7598 3.32314C28.1738 3.29873 27.5879 3.27432 26.9775 3.27432C26.3916 3.27432 25.8057 3.29873 25.1953 3.32314L23.877 0.83291C23.5352 0.198145 22.9736-0.07041 22.3145 0.0272462C21.6064 0.149317 21.1914 0.613184 21.0938 1.29678L20.6787 4.10439C19.5312 4.44619 18.4082 4.86123 17.334 5.34951L15.2588 3.44521C14.7461 2.95693 14.1113 2.90811 13.4766 3.2499C12.8662 3.5917 12.6465 4.17764 12.793 4.86123L13.3789 7.64443C12.4023 8.32803 11.499 9.08486 10.6445 9.91494L8.03223 8.84072C7.39746 8.57217 6.7627 8.74307 6.29883 9.28018C5.83496 9.79287 5.81055 10.4276 6.20117 11.038L7.71484 13.4306C7.03125 14.4071 6.44531 15.4569 5.93262 16.5067L3.125 16.4091C2.39258 16.3603 1.87988 16.7265 1.63574 17.3856C1.36719 18.0448 1.5625 18.6552 2.12402 19.0702L4.37012 20.8036C4.07715 21.9511 3.85742 23.1229 3.75977 24.3437L1.0498 25.1981C0.366211 25.3935 0 25.9062 0 26.6142C0 27.3222 0.366211 27.8104 1.0498 28.0302L3.75977 28.8847C3.85742 30.1054 4.07715 31.2772 4.37012 32.4247L2.12402 34.1581C1.5625 34.5731 1.41602 35.1835 1.61133 35.8427C1.87988 36.5263 2.39258 36.8437 3.10059 36.8192L5.93262 36.7216C6.44531 37.7958 7.03125 38.8212 7.71484 39.8222L6.20117 42.1903C5.81055 42.8007 5.88379 43.4354 6.29883 43.9481C6.78711 44.5097 7.39746 44.6317 8.03223 44.3876L10.6445 43.289C11.499 44.1435 12.4268 44.9003 13.3789 45.6083L12.793 48.3671C12.6465 49.0507 12.8906 49.6366 13.4766 49.9784C14.1113 50.3446 14.7461 50.2714 15.2344 49.7831L17.3584 47.8788C18.4326 48.3915 19.5557 48.7821 20.7031 49.0995L21.0938 51.9071C21.1914 52.6151 21.6309 53.0546 22.29 53.2011C22.998 53.3231 23.5352 53.0302 23.877 52.3954L25.1953 49.8808C25.8057 49.9296 26.3916 49.954 26.9775 49.954ZM26.9775 45.9013C16.333 45.9013 7.69043 37.2587 7.69043 26.6142C7.69043 15.9452 16.333 7.32705 26.9775 7.32705C37.6465 7.32705 46.2646 15.9452 46.2646 26.6142C46.2646 37.2587 37.6465 45.9013 26.9775 45.9013ZM22.7295 22.8788L25.6104 21.0478L17.4561 7.0585L14.4531 8.74307ZM32.4219 28.2743L48.6572 28.2743L48.6572 24.9052L32.4219 24.9052ZM25.6592 32.2538L22.8027 30.3983L14.209 44.412L17.1875 46.1698ZM27.002 33.0106C30.542 33.0106 33.3984 30.1542 33.3984 26.6142C33.3984 23.0741 30.542 20.2177 27.002 20.2177C23.4619 20.2177 20.6055 23.0741 20.6055 26.6142C20.6055 30.1542 23.4619 33.0106 27.002 33.0106ZM27.002 29.3485C25.4883 29.3485 24.2676 28.1278 24.2676 26.6142C24.2676 25.1005 25.4883 23.8798 27.002 23.8798C28.5156 23.8798 29.7363 25.1005 29.7363 26.6142C29.7363 28.1278 28.5156 29.3485 27.002 29.3485Z" fill="white" fill-opacity="0.85"/>
 </g>
</svg>
